<svg xmlns="http://www.w3.org/2000/svg" viewBox="0 0 584 666">
  <g fill="#000">
    <path d="M93 273c22-11 48 4 67 31 22 31 29 74 17 103-12 28-43 41-70 29-27-12-40-43-38-77 2-34 11-74 24-86Z"/>
    <path transform="translate(-18 0)" d="M222 132c25-8 53 17 68 53 17 41 13 89-9 117-20 25-56 27-81 6-26-22-31-63-24-102 7-38 25-68 46-74Z"/>
    <path transform="translate(18 0)" d="M362 132c-25-8-53 17-68 53-17 41-13 89 9 117 20 25 56 27 81 6 26-22 31-63 24-102-7-38-25-68-46-74Z"/>
    <path d="M491 273c-22-11-48 4-67 31-22 31-29 74-17 103 12 28 43 41 70 29 27-12 40-43 38-77-2-34-11-74-24-86Z"/>
    <path d="M292 344c39 0 61 23 82 59 17 29 43 48 76 68 34 21 49 49 47 83-2 43-24 73-60 76-36 3-73-10-112-14-36-4-69 2-107 9-39 7-76 6-94-19-18-24-11-68 5-99 15-29 45-47 73-66 25-18 33-51 52-77 11-15 23-20 38-20Z"/>
    <path d="M83 260c-1-25 3-50 12-69 9 21 11 43 7 65Z"/>
    <path transform="translate(-18 0)" d="M207 120c3-31 11-57 23-75 0 27 2 50 7 72Z"/>
    <path transform="translate(6 0)" d="M377 117c5-22 7-45 7-72 12 18 20 44 23 75Z"/>
    <path d="M482 256c-4-22-2-44 7-65 9 19 13 44 12 69Z"/>
  </g>
</svg>
